<svg width="117" height="61" viewBox="0 0 117 61" fill="none" xmlns="http://www.w3.org/2000/svg">
    <path d="M42.13 33.45C41.2602 33.432 40.3936 33.3383 39.54 33.17V42.17H32.29C28.5667 42.17 24.9862 43.6022 22.29 46.17C19.6007 43.5916 16.0156 42.1576 12.29 42.17H5.29V10.49H12.38C13.9398 10.4861 15.4751 10.8775 16.8426 11.6277C18.2101 12.3779 19.3652 13.4624 20.2 14.78L22.43 18.28L24.66 14.78C25.3421 13.6879 26.2485 12.7532 27.3191 12.0377C28.3896 11.3223 29.6 10.8425 30.87 10.63C30.93 10.53 30.99 10.43 31.06 10.33C31.8 9.19001 33.28 7.12001 34.66 5.21001H32.46C28.7355 5.20382 25.1527 6.63694 22.46 9.21001C19.7633 6.64313 16.1831 5.21104 12.46 5.21001H0V47.49H12.21C13.7687 47.483 15.3034 47.8743 16.6685 48.6269C18.0336 49.3794 19.1838 50.4682 20.01 51.79L22.24 55.31L24.48 51.79C25.3113 50.4707 26.464 49.3841 27.83 48.632C29.196 47.8799 30.7306 47.487 32.29 47.49H44.82V33.22C43.9953 33.3718 43.1586 33.4488 42.32 33.45H42.13Z" fill="#F9FAFB"/>
    <path d="M55.3 18.59C55.0511 15.9618 54.1393 13.4397 52.65 11.26C51 8.69997 45.54 1.84997 45.34 1.60997C44.9534 1.10551 44.4551 0.697565 43.8842 0.418207C43.3134 0.138849 42.6855 -0.00431288 42.05 -2.86744e-05C41.4205 0.00963825 40.8019 0.165547 40.2431 0.455379C39.6843 0.745211 39.2005 1.16103 38.83 1.66997C38.62 1.95997 33.73 8.66997 32.15 11.06C30.6173 13.1704 29.6531 15.6394 29.35 18.23C29.33 18.4762 29.33 18.7237 29.35 18.97V19.63C29.4801 22.9543 30.8799 26.1023 33.261 28.4257C35.6421 30.7492 38.8234 32.0713 42.15 32.12H42.32C45.6137 32.1174 48.7836 30.8647 51.1893 28.6149C53.595 26.3652 55.057 23.2861 55.28 20V19.27C55.28 19 55.31 18.83 55.3 18.59ZM50.01 19.59C49.8878 21.5461 49.0243 23.382 47.5954 24.7235C46.1666 26.0651 44.2799 26.8112 42.32 26.81H42.22C40.2308 26.7852 38.3279 25.9934 36.9082 24.5998C35.4886 23.2062 34.6617 21.3184 34.6 19.33V18.59C34.8825 16.8985 35.5685 15.3 36.6 13.93C37.7 12.25 40.6 8.16997 42.19 6.05997C43.85 8.16997 47.13 12.39 48.28 14.14C49.229 15.535 49.8198 17.1424 50 18.82V19.22C50.01 19.3531 50.01 19.4868 50 19.62L50.01 19.59Z" fill="#9ACA3C"/>
    <path d="M63.28 32.8V47.5H59.12V41.77H53.4501V47.5H49.3V32.8H53.4501V38.32H59.12V32.8H63.28Z" fill="#9ACA3C"/>
    <path d="M78 44.29V47.5H66.22V32.8H77.75V36H70.34V38.47H76.87V41.6H70.34V44.29H78Z" fill="#9ACA3C"/>
    <path d="M93.6 47.5V39.71L89.82 46.05H87.93L84.18 39.92V47.5H80.33V32.8H83.76L88.92 41.29L93.92 32.8H97.34V47.5H93.6Z" fill="#9ACA3C"/>
    <path d="M99.61 40.15C99.61 35.74 103.08 32.51 107.78 32.51C112.48 32.51 116 35.74 116 40.15C116 44.56 112.53 47.79 107.83 47.79C103.13 47.79 99.61 44.56 99.61 40.15ZM111.75 40.15C111.819 39.5877 111.768 39.0171 111.6 38.4759C111.433 37.9348 111.152 37.4355 110.776 37.0111C110.401 36.5867 109.94 36.2469 109.423 36.0141C108.907 35.7814 108.347 35.661 107.78 35.661C107.213 35.661 106.653 35.7814 106.137 36.0141C105.62 36.2469 105.159 36.5867 104.784 37.0111C104.408 37.4355 104.127 37.9348 103.96 38.4759C103.792 39.0171 103.741 39.5877 103.81 40.15C103.741 40.7123 103.792 41.2829 103.96 41.8241C104.127 42.3652 104.408 42.8645 104.784 43.2889C105.159 43.7133 105.62 44.0531 106.137 44.2859C106.653 44.5186 107.213 44.639 107.78 44.639C108.347 44.639 108.907 44.5186 109.423 44.2859C109.94 44.0531 110.401 43.7133 110.776 43.2889C111.152 42.8645 111.433 42.3652 111.6 41.8241C111.768 41.2829 111.819 40.7123 111.75 40.15Z" fill="#9ACA3C"/>
    <path d="M32 51.5H35.54C38.23 51.5 40.07 53.21 40.07 55.7C40.07 58.19 38.23 59.9 35.54 59.9H32V51.5ZM35.46 58.86C36.2968 58.9077 37.1182 58.6211 37.7436 58.0632C38.3691 57.5053 38.7473 56.7218 38.795 55.885C38.8427 55.0482 38.5561 54.2268 37.9982 53.6014C37.4403 52.9759 36.6568 52.5977 35.82 52.55H33.23V58.86H35.46Z" fill="#F9FAFB"/>
    <path d="M48.12 58.86V59.86H41.12V59L46.4 52.47H41.2V51.47H48V52.29L42.75 58.83L48.12 58.86Z" fill="#F9FAFB"/>
    <path d="M49.73 51.5H50.93V59.9H49.73V51.5Z" fill="#F9FAFB"/>
    <path d="M59.54 58.86V59.86H53.45V51.5H59.3699V52.5H54.65V55.08H58.86V56.08H54.65V58.79L59.54 58.86Z" fill="#F9FAFB"/>
    <path d="M68.71 51.5V59.9H67.71L62.71 53.64V59.9H61.51V51.5H62.51L67.51 57.77V51.5H68.71Z" fill="#F9FAFB"/>
    <path d="M78.45 51.5V59.9H77.45L72.45 53.64V59.9H71.25V51.5H72.25L77.25 57.77V51.5H78.45Z" fill="#F9FAFB"/>
    <path d="M81 51.5H82.2V59.9H81V51.5Z" fill="#F9FAFB"/>
    <path d="M83.9999 55.7C83.9947 55.1419 84.0994 54.5882 84.3081 54.0705C84.5168 53.5529 84.8255 53.0814 85.2164 52.683C85.6073 52.2847 86.0729 51.9672 86.5866 51.7488C87.1002 51.5303 87.6518 51.4152 88.2099 51.41H88.4499C89.0447 51.3856 89.6376 51.49 90.1882 51.7161C90.7388 51.9422 91.234 52.2847 91.6399 52.72L90.8599 53.47C90.5598 53.1457 90.1942 52.8889 89.7874 52.7165C89.3805 52.5441 88.9417 52.4601 88.4999 52.47C87.9646 52.4707 87.4378 52.6045 86.967 52.8593C86.4962 53.1141 86.0961 53.482 85.8027 53.9297C85.5093 54.3775 85.3318 54.8912 85.2861 55.4246C85.2405 55.958 85.3281 56.4944 85.5412 56.9855C85.7542 57.4766 86.086 57.9071 86.5067 58.2382C86.9274 58.5693 87.4238 58.7906 87.9512 58.8823C88.4787 58.974 89.0206 58.9331 89.5283 58.7634C90.0361 58.5937 90.4937 58.3004 90.8599 57.91L91.6399 58.67C91.2342 59.1068 90.7395 59.4516 90.1892 59.681C89.6389 59.9105 89.0458 60.0192 88.4499 60C87.3313 60.052 86.2373 59.6614 85.4045 58.9128C84.5716 58.1642 84.0671 57.1178 83.9999 56V55.7Z" fill="#F9FAFB"/>
    <path d="M99.64 58.86V59.86H92.64V59L97.91 52.47H92.71V51.47H99.49V52.29L94.23 58.83L99.64 58.86Z" fill="#F9FAFB"/>
    <path d="M107.35 58.86V59.86H101.25V51.5H107.18V52.5H102.45V55.08H106.66V56.08H102.45V58.79L107.35 58.86Z" fill="#F9FAFB"/>
    <path d="M112 56.17L110.46 57.73V59.9H109.26V51.5H110.46V56.19L115 51.5H116.37L112.78 55.28L116.6 59.9H115.19L112 56.17Z" fill="#F9FAFB"/>
</svg>
